<?xml version="1.0" encoding="utf-8" standalone="no"?>
<!DOCTYPE svg PUBLIC "-//W3C//DTD SVG 1.1//EN"
  "http://www.w3.org/Graphics/SVG/1.1/DTD/svg11.dtd">
<!-- Created with matplotlib (http://matplotlib.org/) -->
<svg height="288pt" version="1.1" viewBox="0 0 432 288" width="432pt" xmlns="http://www.w3.org/2000/svg" xmlns:xlink="http://www.w3.org/1999/xlink">
 <defs>
  <style type="text/css">
*{stroke-linecap:butt;stroke-linejoin:round;}
  </style>
 </defs>
 <g id="figure_1">
  <g id="patch_1">
   <path d="M 0 288 
L 432 288 
L 432 0 
L 0 0 
z
" style="fill:#ffffff;"/>
  </g>
  <g id="axes_1">
   <g id="patch_2">
    <path d="M 54 252 
L 388.8 252 
L 388.8 34.56 
L 54 34.56 
z
" style="fill:#ffffff;"/>
   </g>
   <g id="patch_3">
    <path clip-path="url(#paba3d593d0)" d="M 54.00188 252 
L 57.230094 252 
L 57.230094 246.99078 
L 54.00188 246.99078 
z
" style="fill:#ff8c00;opacity:0.4;"/>
   </g>
   <g id="patch_4">
    <path clip-path="url(#paba3d593d0)" d="M 57.230094 252 
L 60.458308 252 
L 60.458308 249.950774 
L 57.230094 249.950774 
z
" style="fill:#ff8c00;opacity:0.4;"/>
   </g>
   <g id="patch_5">
    <path clip-path="url(#paba3d593d0)" d="M 60.458308 252 
L 63.686521 252 
L 63.686521 249.950774 
L 60.458308 249.950774 
z
" style="fill:#ff8c00;opacity:0.4;"/>
   </g>
   <g id="patch_6">
    <path clip-path="url(#paba3d593d0)" d="M 63.686521 252 
L 66.914735 252 
L 66.914735 249.381544 
L 63.686521 249.381544 
z
" style="fill:#ff8c00;opacity:0.4;"/>
   </g>
   <g id="patch_7">
    <path clip-path="url(#paba3d593d0)" d="M 66.914735 252 
L 70.142949 252 
L 70.142949 250.178465 
L 66.914735 250.178465 
z
" style="fill:#ff8c00;opacity:0.4;"/>
   </g>
   <g id="patch_8">
    <path clip-path="url(#paba3d593d0)" d="M 70.142949 252 
L 73.371162 252 
L 73.371162 250.292311 
L 70.142949 250.292311 
z
" style="fill:#ff8c00;opacity:0.4;"/>
   </g>
   <g id="patch_9">
    <path clip-path="url(#paba3d593d0)" d="M 73.371162 252 
L 76.599376 252 
L 76.599376 250.520003 
L 73.371162 250.520003 
z
" style="fill:#ff8c00;opacity:0.4;"/>
   </g>
   <g id="patch_10">
    <path clip-path="url(#paba3d593d0)" d="M 76.599376 252 
L 79.82759 252 
L 79.82759 250.292311 
L 76.599376 250.292311 
z
" style="fill:#ff8c00;opacity:0.4;"/>
   </g>
   <g id="patch_11">
    <path clip-path="url(#paba3d593d0)" d="M 79.82759 252 
L 83.055803 252 
L 83.055803 250.292311 
L 79.82759 250.292311 
z
" style="fill:#ff8c00;opacity:0.4;"/>
   </g>
   <g id="patch_12">
    <path clip-path="url(#paba3d593d0)" d="M 83.055803 252 
L 86.284017 252 
L 86.284017 250.747695 
L 83.055803 250.747695 
z
" style="fill:#ff8c00;opacity:0.4;"/>
   </g>
   <g id="patch_13">
    <path clip-path="url(#paba3d593d0)" d="M 86.284017 252 
L 89.512231 252 
L 89.512231 248.698469 
L 86.284017 248.698469 
z
" style="fill:#ff8c00;opacity:0.4;"/>
   </g>
   <g id="patch_14">
    <path clip-path="url(#paba3d593d0)" d="M 89.512231 252 
L 92.740445 252 
L 92.740445 251.886154 
L 89.512231 251.886154 
z
" style="fill:#ff8c00;opacity:0.4;"/>
   </g>
   <g id="patch_15">
    <path clip-path="url(#paba3d593d0)" d="M 92.740445 252 
L 95.968658 252 
L 95.968658 251.886154 
L 92.740445 251.886154 
z
" style="fill:#ff8c00;opacity:0.4;"/>
   </g>
   <g id="patch_16">
    <path clip-path="url(#paba3d593d0)" d="M 95.968658 252 
L 99.196872 252 
L 99.196872 242.892327 
L 95.968658 242.892327 
z
" style="fill:#ff8c00;opacity:0.4;"/>
   </g>
   <g id="patch_17">
    <path clip-path="url(#paba3d593d0)" d="M 99.196872 252 
L 102.425086 252 
L 102.425086 250.975387 
L 99.196872 250.975387 
z
" style="fill:#ff8c00;opacity:0.4;"/>
   </g>
   <g id="patch_18">
    <path clip-path="url(#paba3d593d0)" d="M 102.425086 252 
L 105.653299 252 
L 105.653299 250.406157 
L 102.425086 250.406157 
z
" style="fill:#ff8c00;opacity:0.4;"/>
   </g>
   <g id="patch_19">
    <path clip-path="url(#paba3d593d0)" d="M 105.653299 252 
L 108.881513 252 
L 108.881513 251.658462 
L 105.653299 251.658462 
z
" style="fill:#ff8c00;opacity:0.4;"/>
   </g>
   <g id="patch_20">
    <path clip-path="url(#paba3d593d0)" d="M 108.881513 252 
L 112.109727 252 
L 112.109727 251.544616 
L 108.881513 251.544616 
z
" style="fill:#ff8c00;opacity:0.4;"/>
   </g>
   <g id="patch_21">
    <path clip-path="url(#paba3d593d0)" d="M 112.109727 252 
L 115.33794 252 
L 115.33794 251.886154 
L 112.109727 251.886154 
z
" style="fill:#ff8c00;opacity:0.4;"/>
   </g>
   <g id="patch_22">
    <path clip-path="url(#paba3d593d0)" d="M 115.33794 252 
L 118.566154 252 
L 118.566154 251.772308 
L 115.33794 251.772308 
z
" style="fill:#ff8c00;opacity:0.4;"/>
   </g>
   <g id="patch_23">
    <path clip-path="url(#paba3d593d0)" d="M 118.566154 252 
L 121.794368 252 
L 121.794368 250.975387 
L 118.566154 250.975387 
z
" style="fill:#ff8c00;opacity:0.4;"/>
   </g>
   <g id="patch_24">
    <path clip-path="url(#paba3d593d0)" d="M 121.794368 252 
L 125.022581 252 
L 125.022581 251.544616 
L 121.794368 251.544616 
z
" style="fill:#ff8c00;opacity:0.4;"/>
   </g>
   <g id="patch_25">
    <path clip-path="url(#paba3d593d0)" d="M 125.022581 252 
L 128.250795 252 
L 128.250795 251.544616 
L 125.022581 251.544616 
z
" style="fill:#ff8c00;opacity:0.4;"/>
   </g>
   <g id="patch_26">
    <path clip-path="url(#paba3d593d0)" d="M 128.250795 252 
L 131.479009 252 
L 131.479009 251.886154 
L 128.250795 251.886154 
z
" style="fill:#ff8c00;opacity:0.4;"/>
   </g>
   <g id="patch_27">
    <path clip-path="url(#paba3d593d0)" d="M 131.479009 252 
L 134.707223 252 
L 134.707223 251.886154 
L 131.479009 251.886154 
z
" style="fill:#ff8c00;opacity:0.4;"/>
   </g>
   <g id="patch_28">
    <path clip-path="url(#paba3d593d0)" d="M 134.707223 252 
L 137.935436 252 
L 137.935436 250.633849 
L 134.707223 250.633849 
z
" style="fill:#ff8c00;opacity:0.4;"/>
   </g>
   <g id="patch_29">
    <path clip-path="url(#paba3d593d0)" d="M 137.935436 252 
L 141.16365 252 
L 141.16365 252 
L 137.935436 252 
z
" style="fill:#ff8c00;opacity:0.4;"/>
   </g>
   <g id="patch_30">
    <path clip-path="url(#paba3d593d0)" d="M 141.16365 252 
L 144.391864 252 
L 144.391864 251.544616 
L 141.16365 251.544616 
z
" style="fill:#ff8c00;opacity:0.4;"/>
   </g>
   <g id="patch_31">
    <path clip-path="url(#paba3d593d0)" d="M 144.391864 252 
L 147.620077 252 
L 147.620077 44.914286 
L 144.391864 44.914286 
z
" style="fill:#ff8c00;opacity:0.4;"/>
   </g>
   <g id="patch_32">
    <path clip-path="url(#paba3d593d0)" d="M 147.620077 252 
L 150.848291 252 
L 150.848291 251.43077 
L 147.620077 251.43077 
z
" style="fill:#ff8c00;opacity:0.4;"/>
   </g>
   <g id="patch_33">
    <path clip-path="url(#paba3d593d0)" d="M 150.848291 252 
L 154.076505 252 
L 154.076505 251.886154 
L 150.848291 251.886154 
z
" style="fill:#ff8c00;opacity:0.4;"/>
   </g>
   <g id="patch_34">
    <path clip-path="url(#paba3d593d0)" d="M 154.076505 252 
L 157.304718 252 
L 157.304718 249.723082 
L 154.076505 249.723082 
z
" style="fill:#ff8c00;opacity:0.4;"/>
   </g>
   <g id="patch_35">
    <path clip-path="url(#paba3d593d0)" d="M 157.304718 252 
L 160.532932 252 
L 160.532932 251.658462 
L 157.304718 251.658462 
z
" style="fill:#ff8c00;opacity:0.4;"/>
   </g>
   <g id="patch_36">
    <path clip-path="url(#paba3d593d0)" d="M 160.532932 252 
L 163.761146 252 
L 163.761146 251.772308 
L 160.532932 251.772308 
z
" style="fill:#ff8c00;opacity:0.4;"/>
   </g>
   <g id="patch_37">
    <path clip-path="url(#paba3d593d0)" d="M 163.761146 252 
L 166.989359 252 
L 166.989359 251.544616 
L 163.761146 251.544616 
z
" style="fill:#ff8c00;opacity:0.4;"/>
   </g>
   <g id="patch_38">
    <path clip-path="url(#paba3d593d0)" d="M 166.989359 252 
L 170.217573 252 
L 170.217573 249.950774 
L 166.989359 249.950774 
z
" style="fill:#ff8c00;opacity:0.4;"/>
   </g>
   <g id="patch_39">
    <path clip-path="url(#paba3d593d0)" d="M 170.217573 252 
L 173.445787 252 
L 173.445787 251.772308 
L 170.217573 251.772308 
z
" style="fill:#ff8c00;opacity:0.4;"/>
   </g>
   <g id="patch_40">
    <path clip-path="url(#paba3d593d0)" d="M 173.445787 252 
L 176.674001 252 
L 176.674001 251.43077 
L 173.445787 251.43077 
z
" style="fill:#ff8c00;opacity:0.4;"/>
   </g>
   <g id="patch_41">
    <path clip-path="url(#paba3d593d0)" d="M 176.674001 252 
L 179.902214 252 
L 179.902214 250.975387 
L 176.674001 250.975387 
z
" style="fill:#ff8c00;opacity:0.4;"/>
   </g>
   <g id="patch_42">
    <path clip-path="url(#paba3d593d0)" d="M 179.902214 252 
L 183.130428 252 
L 183.130428 251.886154 
L 179.902214 251.886154 
z
" style="fill:#ff8c00;opacity:0.4;"/>
   </g>
   <g id="patch_43">
    <path clip-path="url(#paba3d593d0)" d="M 183.130428 252 
L 186.358642 252 
L 186.358642 252 
L 183.130428 252 
z
" style="fill:#ff8c00;opacity:0.4;"/>
   </g>
   <g id="patch_44">
    <path clip-path="url(#paba3d593d0)" d="M 186.358642 252 
L 189.586855 252 
L 189.586855 246.763088 
L 186.358642 246.763088 
z
" style="fill:#ff8c00;opacity:0.4;"/>
   </g>
   <g id="patch_45">
    <path clip-path="url(#paba3d593d0)" d="M 189.586855 252 
L 192.815069 252 
L 192.815069 252 
L 189.586855 252 
z
" style="fill:#ff8c00;opacity:0.4;"/>
   </g>
   <g id="patch_46">
    <path clip-path="url(#paba3d593d0)" d="M 192.815069 252 
L 196.043283 252 
L 196.043283 251.43077 
L 192.815069 251.43077 
z
" style="fill:#ff8c00;opacity:0.4;"/>
   </g>
   <g id="patch_47">
    <path clip-path="url(#paba3d593d0)" d="M 196.043283 252 
L 199.271496 252 
L 199.271496 251.886154 
L 196.043283 251.886154 
z
" style="fill:#ff8c00;opacity:0.4;"/>
   </g>
   <g id="patch_48">
    <path clip-path="url(#paba3d593d0)" d="M 199.271496 252 
L 202.49971 252 
L 202.49971 249.49539 
L 199.271496 249.49539 
z
" style="fill:#ff8c00;opacity:0.4;"/>
   </g>
   <g id="patch_49">
    <path clip-path="url(#paba3d593d0)" d="M 202.49971 252 
L 205.727924 252 
L 205.727924 251.316925 
L 202.49971 251.316925 
z
" style="fill:#ff8c00;opacity:0.4;"/>
   </g>
   <g id="patch_50">
    <path clip-path="url(#paba3d593d0)" d="M 205.727924 252 
L 208.956137 252 
L 208.956137 251.772308 
L 205.727924 251.772308 
z
" style="fill:#ff8c00;opacity:0.4;"/>
   </g>
   <g id="patch_51">
    <path clip-path="url(#paba3d593d0)" d="M 208.956137 252 
L 212.184351 252 
L 212.184351 251.886154 
L 208.956137 251.886154 
z
" style="fill:#ff8c00;opacity:0.4;"/>
   </g>
   <g id="patch_52">
    <path clip-path="url(#paba3d593d0)" d="M 212.184351 252 
L 215.412565 252 
L 215.412565 251.658462 
L 212.184351 251.658462 
z
" style="fill:#ff8c00;opacity:0.4;"/>
   </g>
   <g id="patch_53">
    <path clip-path="url(#paba3d593d0)" d="M 215.412565 252 
L 218.640779 252 
L 218.640779 251.772308 
L 215.412565 251.772308 
z
" style="fill:#ff8c00;opacity:0.4;"/>
   </g>
   <g id="patch_54">
    <path clip-path="url(#paba3d593d0)" d="M 218.640779 252 
L 221.868992 252 
L 221.868992 252 
L 218.640779 252 
z
" style="fill:#ff8c00;opacity:0.4;"/>
   </g>
   <g id="patch_55">
    <path clip-path="url(#paba3d593d0)" d="M 221.868992 252 
L 225.097206 252 
L 225.097206 251.43077 
L 221.868992 251.43077 
z
" style="fill:#ff8c00;opacity:0.4;"/>
   </g>
   <g id="patch_56">
    <path clip-path="url(#paba3d593d0)" d="M 225.097206 252 
L 228.32542 252 
L 228.32542 251.886154 
L 225.097206 251.886154 
z
" style="fill:#ff8c00;opacity:0.4;"/>
   </g>
   <g id="patch_57">
    <path clip-path="url(#paba3d593d0)" d="M 228.32542 252 
L 231.553633 252 
L 231.553633 251.089233 
L 228.32542 251.089233 
z
" style="fill:#ff8c00;opacity:0.4;"/>
   </g>
   <g id="patch_58">
    <path clip-path="url(#paba3d593d0)" d="M 231.553633 252 
L 234.781847 252 
L 234.781847 251.886154 
L 231.553633 251.886154 
z
" style="fill:#ff8c00;opacity:0.4;"/>
   </g>
   <g id="patch_59">
    <path clip-path="url(#paba3d593d0)" d="M 234.781847 252 
L 238.010061 252 
L 238.010061 251.772308 
L 234.781847 251.772308 
z
" style="fill:#ff8c00;opacity:0.4;"/>
   </g>
   <g id="patch_60">
    <path clip-path="url(#paba3d593d0)" d="M 238.010061 252 
L 241.238274 252 
L 241.238274 251.43077 
L 238.010061 251.43077 
z
" style="fill:#ff8c00;opacity:0.4;"/>
   </g>
   <g id="patch_61">
    <path clip-path="url(#paba3d593d0)" d="M 241.238274 252 
L 244.466488 252 
L 244.466488 237.883107 
L 241.238274 237.883107 
z
" style="fill:#ff8c00;opacity:0.4;"/>
   </g>
   <g id="patch_62">
    <path clip-path="url(#paba3d593d0)" d="M 244.466488 252 
L 247.694702 252 
L 247.694702 252 
L 244.466488 252 
z
" style="fill:#ff8c00;opacity:0.4;"/>
   </g>
   <g id="patch_63">
    <path clip-path="url(#paba3d593d0)" d="M 247.694702 252 
L 250.922915 252 
L 250.922915 252 
L 247.694702 252 
z
" style="fill:#ff8c00;opacity:0.4;"/>
   </g>
   <g id="patch_64">
    <path clip-path="url(#paba3d593d0)" d="M 250.922915 252 
L 254.151129 252 
L 254.151129 213.520082 
L 250.922915 213.520082 
z
" style="fill:#ff8c00;opacity:0.4;"/>
   </g>
   <g id="patch_65">
    <path clip-path="url(#paba3d593d0)" d="M 254.151129 252 
L 257.379343 252 
L 257.379343 251.886154 
L 254.151129 251.886154 
z
" style="fill:#ff8c00;opacity:0.4;"/>
   </g>
   <g id="patch_66">
    <path clip-path="url(#paba3d593d0)" d="M 257.379343 252 
L 260.607557 252 
L 260.607557 251.886154 
L 257.379343 251.886154 
z
" style="fill:#ff8c00;opacity:0.4;"/>
   </g>
   <g id="patch_67">
    <path clip-path="url(#paba3d593d0)" d="M 260.607557 252 
L 263.83577 252 
L 263.83577 251.772308 
L 260.607557 251.772308 
z
" style="fill:#ff8c00;opacity:0.4;"/>
   </g>
   <g id="patch_68">
    <path clip-path="url(#paba3d593d0)" d="M 263.83577 252 
L 267.063984 252 
L 267.063984 245.738475 
L 263.83577 245.738475 
z
" style="fill:#ff8c00;opacity:0.4;"/>
   </g>
   <g id="patch_69">
    <path clip-path="url(#paba3d593d0)" d="M 267.063984 252 
L 270.292198 252 
L 270.292198 251.772308 
L 267.063984 251.772308 
z
" style="fill:#ff8c00;opacity:0.4;"/>
   </g>
   <g id="patch_70">
    <path clip-path="url(#paba3d593d0)" d="M 270.292198 252 
L 273.520411 252 
L 273.520411 251.316925 
L 270.292198 251.316925 
z
" style="fill:#ff8c00;opacity:0.4;"/>
   </g>
   <g id="patch_71">
    <path clip-path="url(#paba3d593d0)" d="M 273.520411 252 
L 276.748625 252 
L 276.748625 252 
L 273.520411 252 
z
" style="fill:#ff8c00;opacity:0.4;"/>
   </g>
   <g id="patch_72">
    <path clip-path="url(#paba3d593d0)" d="M 276.748625 252 
L 279.976839 252 
L 279.976839 251.886154 
L 276.748625 251.886154 
z
" style="fill:#ff8c00;opacity:0.4;"/>
   </g>
   <g id="patch_73">
    <path clip-path="url(#paba3d593d0)" d="M 279.976839 252 
L 283.205052 252 
L 283.205052 251.886154 
L 279.976839 251.886154 
z
" style="fill:#ff8c00;opacity:0.4;"/>
   </g>
   <g id="patch_74">
    <path clip-path="url(#paba3d593d0)" d="M 283.205052 252 
L 286.433266 252 
L 286.433266 251.658462 
L 283.205052 251.658462 
z
" style="fill:#ff8c00;opacity:0.4;"/>
   </g>
   <g id="patch_75">
    <path clip-path="url(#paba3d593d0)" d="M 286.433266 252 
L 289.66148 252 
L 289.66148 251.772308 
L 286.433266 251.772308 
z
" style="fill:#ff8c00;opacity:0.4;"/>
   </g>
   <g id="patch_76">
    <path clip-path="url(#paba3d593d0)" d="M 289.66148 252 
L 292.889694 252 
L 292.889694 252 
L 289.66148 252 
z
" style="fill:#ff8c00;opacity:0.4;"/>
   </g>
   <g id="patch_77">
    <path clip-path="url(#paba3d593d0)" d="M 292.889694 252 
L 296.117907 252 
L 296.117907 251.886154 
L 292.889694 251.886154 
z
" style="fill:#ff8c00;opacity:0.4;"/>
   </g>
   <g id="patch_78">
    <path clip-path="url(#paba3d593d0)" d="M 296.117907 252 
L 299.346121 252 
L 299.346121 251.886154 
L 296.117907 251.886154 
z
" style="fill:#ff8c00;opacity:0.4;"/>
   </g>
   <g id="patch_79">
    <path clip-path="url(#paba3d593d0)" d="M 299.346121 252 
L 302.574335 252 
L 302.574335 252 
L 299.346121 252 
z
" style="fill:#ff8c00;opacity:0.4;"/>
   </g>
   <g id="patch_80">
    <path clip-path="url(#paba3d593d0)" d="M 302.574335 252 
L 305.802548 252 
L 305.802548 251.772308 
L 302.574335 251.772308 
z
" style="fill:#ff8c00;opacity:0.4;"/>
   </g>
   <g id="patch_81">
    <path clip-path="url(#paba3d593d0)" d="M 305.802548 252 
L 309.030762 252 
L 309.030762 243.347711 
L 305.802548 243.347711 
z
" style="fill:#ff8c00;opacity:0.4;"/>
   </g>
   <g id="patch_82">
    <path clip-path="url(#paba3d593d0)" d="M 309.030762 252 
L 312.258976 252 
L 312.258976 251.43077 
L 309.030762 251.43077 
z
" style="fill:#ff8c00;opacity:0.4;"/>
   </g>
   <g id="patch_83">
    <path clip-path="url(#paba3d593d0)" d="M 312.258976 252 
L 315.487189 252 
L 315.487189 252 
L 312.258976 252 
z
" style="fill:#ff8c00;opacity:0.4;"/>
   </g>
   <g id="patch_84">
    <path clip-path="url(#paba3d593d0)" d="M 315.487189 252 
L 318.715403 252 
L 318.715403 251.658462 
L 315.487189 251.658462 
z
" style="fill:#ff8c00;opacity:0.4;"/>
   </g>
   <g id="patch_85">
    <path clip-path="url(#paba3d593d0)" d="M 318.715403 252 
L 321.943617 252 
L 321.943617 252 
L 318.715403 252 
z
" style="fill:#ff8c00;opacity:0.4;"/>
   </g>
   <g id="patch_86">
    <path clip-path="url(#paba3d593d0)" d="M 321.943617 252 
L 325.17183 252 
L 325.17183 251.772308 
L 321.943617 251.772308 
z
" style="fill:#ff8c00;opacity:0.4;"/>
   </g>
   <g id="patch_87">
    <path clip-path="url(#paba3d593d0)" d="M 325.17183 252 
L 328.400044 252 
L 328.400044 252 
L 325.17183 252 
z
" style="fill:#ff8c00;opacity:0.4;"/>
   </g>
   <g id="patch_88">
    <path clip-path="url(#paba3d593d0)" d="M 328.400044 252 
L 331.628258 252 
L 331.628258 251.43077 
L 328.400044 251.43077 
z
" style="fill:#ff8c00;opacity:0.4;"/>
   </g>
   <g id="patch_89">
    <path clip-path="url(#paba3d593d0)" d="M 331.628258 252 
L 334.856472 252 
L 334.856472 250.520003 
L 331.628258 250.520003 
z
" style="fill:#ff8c00;opacity:0.4;"/>
   </g>
   <g id="patch_90">
    <path clip-path="url(#paba3d593d0)" d="M 334.856472 252 
L 338.084685 252 
L 338.084685 252 
L 334.856472 252 
z
" style="fill:#ff8c00;opacity:0.4;"/>
   </g>
   <g id="patch_91">
    <path clip-path="url(#paba3d593d0)" d="M 338.084685 252 
L 341.312899 252 
L 341.312899 252 
L 338.084685 252 
z
" style="fill:#ff8c00;opacity:0.4;"/>
   </g>
   <g id="patch_92">
    <path clip-path="url(#paba3d593d0)" d="M 341.312899 252 
L 344.541113 252 
L 344.541113 252 
L 341.312899 252 
z
" style="fill:#ff8c00;opacity:0.4;"/>
   </g>
   <g id="patch_93">
    <path clip-path="url(#paba3d593d0)" d="M 344.541113 252 
L 347.769326 252 
L 347.769326 251.43077 
L 344.541113 251.43077 
z
" style="fill:#ff8c00;opacity:0.4;"/>
   </g>
   <g id="patch_94">
    <path clip-path="url(#paba3d593d0)" d="M 347.769326 252 
L 350.99754 252 
L 350.99754 251.772308 
L 347.769326 251.772308 
z
" style="fill:#ff8c00;opacity:0.4;"/>
   </g>
   <g id="patch_95">
    <path clip-path="url(#paba3d593d0)" d="M 350.99754 252 
L 354.225754 252 
L 354.225754 251.772308 
L 350.99754 251.772308 
z
" style="fill:#ff8c00;opacity:0.4;"/>
   </g>
   <g id="patch_96">
    <path clip-path="url(#paba3d593d0)" d="M 354.225754 252 
L 357.453967 252 
L 357.453967 251.43077 
L 354.225754 251.43077 
z
" style="fill:#ff8c00;opacity:0.4;"/>
   </g>
   <g id="patch_97">
    <path clip-path="url(#paba3d593d0)" d="M 357.453967 252 
L 360.682181 252 
L 360.682181 251.886154 
L 357.453967 251.886154 
z
" style="fill:#ff8c00;opacity:0.4;"/>
   </g>
   <g id="patch_98">
    <path clip-path="url(#paba3d593d0)" d="M 360.682181 252 
L 363.910395 252 
L 363.910395 251.772308 
L 360.682181 251.772308 
z
" style="fill:#ff8c00;opacity:0.4;"/>
   </g>
   <g id="patch_99">
    <path clip-path="url(#paba3d593d0)" d="M 363.910395 252 
L 367.138608 252 
L 367.138608 251.772308 
L 363.910395 251.772308 
z
" style="fill:#ff8c00;opacity:0.4;"/>
   </g>
   <g id="patch_100">
    <path clip-path="url(#paba3d593d0)" d="M 367.138608 252 
L 370.366822 252 
L 370.366822 251.772308 
L 367.138608 251.772308 
z
" style="fill:#ff8c00;opacity:0.4;"/>
   </g>
   <g id="patch_101">
    <path clip-path="url(#paba3d593d0)" d="M 370.366822 252 
L 373.595036 252 
L 373.595036 251.772308 
L 370.366822 251.772308 
z
" style="fill:#ff8c00;opacity:0.4;"/>
   </g>
   <g id="patch_102">
    <path clip-path="url(#paba3d593d0)" d="M 373.595036 252 
L 376.82325 252 
L 376.82325 213.975465 
L 373.595036 213.975465 
z
" style="fill:#ff8c00;opacity:0.4;"/>
   </g>
   <g id="matplotlib.axis_1">
    <g id="xtick_1">
     <g id="line2d_1">
      <defs>
       <path d="M 0 0 
L 0 3.5 
" id="m2a48266512" style="stroke:#000000;stroke-width:0.8;"/>
      </defs>
      <g>
       <use style="stroke:#000000;stroke-width:0.8;" x="54" xlink:href="#m2a48266512" y="252"/>
      </g>
     </g>
     <g id="text_1">
      <!-- 0.0 -->
      <defs>
       <path d="M 31.78125 66.40625 
Q 24.171875 66.40625 20.328125 58.90625 
Q 16.5 51.421875 16.5 36.375 
Q 16.5 21.390625 20.328125 13.890625 
Q 24.171875 6.390625 31.78125 6.390625 
Q 39.453125 6.390625 43.28125 13.890625 
Q 47.125 21.390625 47.125 36.375 
Q 47.125 51.421875 43.28125 58.90625 
Q 39.453125 66.40625 31.78125 66.40625 
z
M 31.78125 74.21875 
Q 44.046875 74.21875 50.515625 64.515625 
Q 56.984375 54.828125 56.984375 36.375 
Q 56.984375 17.96875 50.515625 8.265625 
Q 44.046875 -1.421875 31.78125 -1.421875 
Q 19.53125 -1.421875 13.0625 8.265625 
Q 6.59375 17.96875 6.59375 36.375 
Q 6.59375 54.828125 13.0625 64.515625 
Q 19.53125 74.21875 31.78125 74.21875 
z
" id="DejaVuSans-30"/>
       <path d="M 10.6875 12.40625 
L 21 12.40625 
L 21 0 
L 10.6875 0 
z
" id="DejaVuSans-2e"/>
      </defs>
      <g transform="translate(46.048437 266.598437)scale(0.1 -0.1)">
       <use xlink:href="#DejaVuSans-30"/>
       <use x="63.623047" xlink:href="#DejaVuSans-2e"/>
       <use x="95.410156" xlink:href="#DejaVuSans-30"/>
      </g>
     </g>
    </g>
    <g id="xtick_2">
     <g id="line2d_2">
      <g>
       <use style="stroke:#000000;stroke-width:0.8;" x="120.96" xlink:href="#m2a48266512" y="252"/>
      </g>
     </g>
     <g id="text_2">
      <!-- 0.2 -->
      <defs>
       <path d="M 19.1875 8.296875 
L 53.609375 8.296875 
L 53.609375 0 
L 7.328125 0 
L 7.328125 8.296875 
Q 12.9375 14.109375 22.625 23.890625 
Q 32.328125 33.6875 34.8125 36.53125 
Q 39.546875 41.84375 41.421875 45.53125 
Q 43.3125 49.21875 43.3125 52.78125 
Q 43.3125 58.59375 39.234375 62.25 
Q 35.15625 65.921875 28.609375 65.921875 
Q 23.96875 65.921875 18.8125 64.3125 
Q 13.671875 62.703125 7.8125 59.421875 
L 7.8125 69.390625 
Q 13.765625 71.78125 18.9375 73 
Q 24.125 74.21875 28.421875 74.21875 
Q 39.75 74.21875 46.484375 68.546875 
Q 53.21875 62.890625 53.21875 53.421875 
Q 53.21875 48.921875 51.53125 44.890625 
Q 49.859375 40.875 45.40625 35.40625 
Q 44.1875 33.984375 37.640625 27.21875 
Q 31.109375 20.453125 19.1875 8.296875 
z
" id="DejaVuSans-32"/>
      </defs>
      <g transform="translate(113.008438 266.598437)scale(0.1 -0.1)">
       <use xlink:href="#DejaVuSans-30"/>
       <use x="63.623047" xlink:href="#DejaVuSans-2e"/>
       <use x="95.410156" xlink:href="#DejaVuSans-32"/>
      </g>
     </g>
    </g>
    <g id="xtick_3">
     <g id="line2d_3">
      <g>
       <use style="stroke:#000000;stroke-width:0.8;" x="187.92" xlink:href="#m2a48266512" y="252"/>
      </g>
     </g>
     <g id="text_3">
      <!-- 0.4 -->
      <defs>
       <path d="M 37.796875 64.3125 
L 12.890625 25.390625 
L 37.796875 25.390625 
z
M 35.203125 72.90625 
L 47.609375 72.90625 
L 47.609375 25.390625 
L 58.015625 25.390625 
L 58.015625 17.1875 
L 47.609375 17.1875 
L 47.609375 0 
L 37.796875 0 
L 37.796875 17.1875 
L 4.890625 17.1875 
L 4.890625 26.703125 
z
" id="DejaVuSans-34"/>
      </defs>
      <g transform="translate(179.968438 266.598437)scale(0.1 -0.1)">
       <use xlink:href="#DejaVuSans-30"/>
       <use x="63.623047" xlink:href="#DejaVuSans-2e"/>
       <use x="95.410156" xlink:href="#DejaVuSans-34"/>
      </g>
     </g>
    </g>
    <g id="xtick_4">
     <g id="line2d_4">
      <g>
       <use style="stroke:#000000;stroke-width:0.8;" x="254.88" xlink:href="#m2a48266512" y="252"/>
      </g>
     </g>
     <g id="text_4">
      <!-- 0.6 -->
      <defs>
       <path d="M 33.015625 40.375 
Q 26.375 40.375 22.484375 35.828125 
Q 18.609375 31.296875 18.609375 23.390625 
Q 18.609375 15.53125 22.484375 10.953125 
Q 26.375 6.390625 33.015625 6.390625 
Q 39.65625 6.390625 43.53125 10.953125 
Q 47.40625 15.53125 47.40625 23.390625 
Q 47.40625 31.296875 43.53125 35.828125 
Q 39.65625 40.375 33.015625 40.375 
z
M 52.59375 71.296875 
L 52.59375 62.3125 
Q 48.875 64.0625 45.09375 64.984375 
Q 41.3125 65.921875 37.59375 65.921875 
Q 27.828125 65.921875 22.671875 59.328125 
Q 17.53125 52.734375 16.796875 39.40625 
Q 19.671875 43.65625 24.015625 45.921875 
Q 28.375 48.1875 33.59375 48.1875 
Q 44.578125 48.1875 50.953125 41.515625 
Q 57.328125 34.859375 57.328125 23.390625 
Q 57.328125 12.15625 50.6875 5.359375 
Q 44.046875 -1.421875 33.015625 -1.421875 
Q 20.359375 -1.421875 13.671875 8.265625 
Q 6.984375 17.96875 6.984375 36.375 
Q 6.984375 53.65625 15.1875 63.9375 
Q 23.390625 74.21875 37.203125 74.21875 
Q 40.921875 74.21875 44.703125 73.484375 
Q 48.484375 72.75 52.59375 71.296875 
z
" id="DejaVuSans-36"/>
      </defs>
      <g transform="translate(246.928438 266.598437)scale(0.1 -0.1)">
       <use xlink:href="#DejaVuSans-30"/>
       <use x="63.623047" xlink:href="#DejaVuSans-2e"/>
       <use x="95.410156" xlink:href="#DejaVuSans-36"/>
      </g>
     </g>
    </g>
    <g id="xtick_5">
     <g id="line2d_5">
      <g>
       <use style="stroke:#000000;stroke-width:0.8;" x="321.84" xlink:href="#m2a48266512" y="252"/>
      </g>
     </g>
     <g id="text_5">
      <!-- 0.8 -->
      <defs>
       <path d="M 31.78125 34.625 
Q 24.75 34.625 20.71875 30.859375 
Q 16.703125 27.09375 16.703125 20.515625 
Q 16.703125 13.921875 20.71875 10.15625 
Q 24.75 6.390625 31.78125 6.390625 
Q 38.8125 6.390625 42.859375 10.171875 
Q 46.921875 13.96875 46.921875 20.515625 
Q 46.921875 27.09375 42.890625 30.859375 
Q 38.875 34.625 31.78125 34.625 
z
M 21.921875 38.8125 
Q 15.578125 40.375 12.03125 44.71875 
Q 8.5 49.078125 8.5 55.328125 
Q 8.5 64.0625 14.71875 69.140625 
Q 20.953125 74.21875 31.78125 74.21875 
Q 42.671875 74.21875 48.875 69.140625 
Q 55.078125 64.0625 55.078125 55.328125 
Q 55.078125 49.078125 51.53125 44.71875 
Q 48 40.375 41.703125 38.8125 
Q 48.828125 37.15625 52.796875 32.3125 
Q 56.78125 27.484375 56.78125 20.515625 
Q 56.78125 9.90625 50.3125 4.234375 
Q 43.84375 -1.421875 31.78125 -1.421875 
Q 19.734375 -1.421875 13.25 4.234375 
Q 6.78125 9.90625 6.78125 20.515625 
Q 6.78125 27.484375 10.78125 32.3125 
Q 14.796875 37.15625 21.921875 38.8125 
z
M 18.3125 54.390625 
Q 18.3125 48.734375 21.84375 45.5625 
Q 25.390625 42.390625 31.78125 42.390625 
Q 38.140625 42.390625 41.71875 45.5625 
Q 45.3125 48.734375 45.3125 54.390625 
Q 45.3125 60.0625 41.71875 63.234375 
Q 38.140625 66.40625 31.78125 66.40625 
Q 25.390625 66.40625 21.84375 63.234375 
Q 18.3125 60.0625 18.3125 54.390625 
z
" id="DejaVuSans-38"/>
      </defs>
      <g transform="translate(313.888438 266.598437)scale(0.1 -0.1)">
       <use xlink:href="#DejaVuSans-30"/>
       <use x="63.623047" xlink:href="#DejaVuSans-2e"/>
       <use x="95.410156" xlink:href="#DejaVuSans-38"/>
      </g>
     </g>
    </g>
    <g id="xtick_6">
     <g id="line2d_6">
      <g>
       <use style="stroke:#000000;stroke-width:0.8;" x="388.8" xlink:href="#m2a48266512" y="252"/>
      </g>
     </g>
     <g id="text_6">
      <!-- 1.0 -->
      <defs>
       <path d="M 12.40625 8.296875 
L 28.515625 8.296875 
L 28.515625 63.921875 
L 10.984375 60.40625 
L 10.984375 69.390625 
L 28.421875 72.90625 
L 38.28125 72.90625 
L 38.28125 8.296875 
L 54.390625 8.296875 
L 54.390625 0 
L 12.40625 0 
z
" id="DejaVuSans-31"/>
      </defs>
      <g transform="translate(380.848437 266.598437)scale(0.1 -0.1)">
       <use xlink:href="#DejaVuSans-31"/>
       <use x="63.623047" xlink:href="#DejaVuSans-2e"/>
       <use x="95.410156" xlink:href="#DejaVuSans-30"/>
      </g>
     </g>
    </g>
    <g id="text_7">
     <!-- Coefficient of determination -->
     <defs>
      <path d="M 64.40625 67.28125 
L 64.40625 56.890625 
Q 59.421875 61.53125 53.78125 63.8125 
Q 48.140625 66.109375 41.796875 66.109375 
Q 29.296875 66.109375 22.65625 58.46875 
Q 16.015625 50.828125 16.015625 36.375 
Q 16.015625 21.96875 22.65625 14.328125 
Q 29.296875 6.6875 41.796875 6.6875 
Q 48.140625 6.6875 53.78125 8.984375 
Q 59.421875 11.28125 64.40625 15.921875 
L 64.40625 5.609375 
Q 59.234375 2.09375 53.4375 0.328125 
Q 47.65625 -1.421875 41.21875 -1.421875 
Q 24.65625 -1.421875 15.125 8.703125 
Q 5.609375 18.84375 5.609375 36.375 
Q 5.609375 53.953125 15.125 64.078125 
Q 24.65625 74.21875 41.21875 74.21875 
Q 47.75 74.21875 53.53125 72.484375 
Q 59.328125 70.75 64.40625 67.28125 
z
" id="DejaVuSans-43"/>
      <path d="M 30.609375 48.390625 
Q 23.390625 48.390625 19.1875 42.75 
Q 14.984375 37.109375 14.984375 27.296875 
Q 14.984375 17.484375 19.15625 11.84375 
Q 23.34375 6.203125 30.609375 6.203125 
Q 37.796875 6.203125 41.984375 11.859375 
Q 46.1875 17.53125 46.1875 27.296875 
Q 46.1875 37.015625 41.984375 42.703125 
Q 37.796875 48.390625 30.609375 48.390625 
z
M 30.609375 56 
Q 42.328125 56 49.015625 48.375 
Q 55.71875 40.765625 55.71875 27.296875 
Q 55.71875 13.875 49.015625 6.21875 
Q 42.328125 -1.421875 30.609375 -1.421875 
Q 18.84375 -1.421875 12.171875 6.21875 
Q 5.515625 13.875 5.515625 27.296875 
Q 5.515625 40.765625 12.171875 48.375 
Q 18.84375 56 30.609375 56 
z
" id="DejaVuSans-6f"/>
      <path d="M 56.203125 29.59375 
L 56.203125 25.203125 
L 14.890625 25.203125 
Q 15.484375 15.921875 20.484375 11.0625 
Q 25.484375 6.203125 34.421875 6.203125 
Q 39.59375 6.203125 44.453125 7.46875 
Q 49.3125 8.734375 54.109375 11.28125 
L 54.109375 2.78125 
Q 49.265625 0.734375 44.1875 -0.34375 
Q 39.109375 -1.421875 33.890625 -1.421875 
Q 20.796875 -1.421875 13.15625 6.1875 
Q 5.515625 13.8125 5.515625 26.8125 
Q 5.515625 40.234375 12.765625 48.109375 
Q 20.015625 56 32.328125 56 
Q 43.359375 56 49.78125 48.890625 
Q 56.203125 41.796875 56.203125 29.59375 
z
M 47.21875 32.234375 
Q 47.125 39.59375 43.09375 43.984375 
Q 39.0625 48.390625 32.421875 48.390625 
Q 24.90625 48.390625 20.390625 44.140625 
Q 15.875 39.890625 15.1875 32.171875 
z
" id="DejaVuSans-65"/>
      <path d="M 37.109375 75.984375 
L 37.109375 68.5 
L 28.515625 68.5 
Q 23.6875 68.5 21.796875 66.546875 
Q 19.921875 64.59375 19.921875 59.515625 
L 19.921875 54.6875 
L 34.71875 54.6875 
L 34.71875 47.703125 
L 19.921875 47.703125 
L 19.921875 0 
L 10.890625 0 
L 10.890625 47.703125 
L 2.296875 47.703125 
L 2.296875 54.6875 
L 10.890625 54.6875 
L 10.890625 58.5 
Q 10.890625 67.625 15.140625 71.796875 
Q 19.390625 75.984375 28.609375 75.984375 
z
" id="DejaVuSans-66"/>
      <path d="M 9.421875 54.6875 
L 18.40625 54.6875 
L 18.40625 0 
L 9.421875 0 
z
M 9.421875 75.984375 
L 18.40625 75.984375 
L 18.40625 64.59375 
L 9.421875 64.59375 
z
" id="DejaVuSans-69"/>
      <path d="M 48.78125 52.59375 
L 48.78125 44.1875 
Q 44.96875 46.296875 41.140625 47.34375 
Q 37.3125 48.390625 33.40625 48.390625 
Q 24.65625 48.390625 19.8125 42.84375 
Q 14.984375 37.3125 14.984375 27.296875 
Q 14.984375 17.28125 19.8125 11.734375 
Q 24.65625 6.203125 33.40625 6.203125 
Q 37.3125 6.203125 41.140625 7.25 
Q 44.96875 8.296875 48.78125 10.40625 
L 48.78125 2.09375 
Q 45.015625 0.34375 40.984375 -0.53125 
Q 36.96875 -1.421875 32.421875 -1.421875 
Q 20.0625 -1.421875 12.78125 6.34375 
Q 5.515625 14.109375 5.515625 27.296875 
Q 5.515625 40.671875 12.859375 48.328125 
Q 20.21875 56 33.015625 56 
Q 37.15625 56 41.109375 55.140625 
Q 45.0625 54.296875 48.78125 52.59375 
z
" id="DejaVuSans-63"/>
      <path d="M 54.890625 33.015625 
L 54.890625 0 
L 45.90625 0 
L 45.90625 32.71875 
Q 45.90625 40.484375 42.875 44.328125 
Q 39.84375 48.1875 33.796875 48.1875 
Q 26.515625 48.1875 22.3125 43.546875 
Q 18.109375 38.921875 18.109375 30.90625 
L 18.109375 0 
L 9.078125 0 
L 9.078125 54.6875 
L 18.109375 54.6875 
L 18.109375 46.1875 
Q 21.34375 51.125 25.703125 53.5625 
Q 30.078125 56 35.796875 56 
Q 45.21875 56 50.046875 50.171875 
Q 54.890625 44.34375 54.890625 33.015625 
z
" id="DejaVuSans-6e"/>
      <path d="M 18.3125 70.21875 
L 18.3125 54.6875 
L 36.8125 54.6875 
L 36.8125 47.703125 
L 18.3125 47.703125 
L 18.3125 18.015625 
Q 18.3125 11.328125 20.140625 9.421875 
Q 21.96875 7.515625 27.59375 7.515625 
L 36.8125 7.515625 
L 36.8125 0 
L 27.59375 0 
Q 17.1875 0 13.234375 3.875 
Q 9.28125 7.765625 9.28125 18.015625 
L 9.28125 47.703125 
L 2.6875 47.703125 
L 2.6875 54.6875 
L 9.28125 54.6875 
L 9.28125 70.21875 
z
" id="DejaVuSans-74"/>
      <path id="DejaVuSans-20"/>
      <path d="M 45.40625 46.390625 
L 45.40625 75.984375 
L 54.390625 75.984375 
L 54.390625 0 
L 45.40625 0 
L 45.40625 8.203125 
Q 42.578125 3.328125 38.25 0.953125 
Q 33.9375 -1.421875 27.875 -1.421875 
Q 17.96875 -1.421875 11.734375 6.484375 
Q 5.515625 14.40625 5.515625 27.296875 
Q 5.515625 40.1875 11.734375 48.09375 
Q 17.96875 56 27.875 56 
Q 33.9375 56 38.25 53.625 
Q 42.578125 51.265625 45.40625 46.390625 
z
M 14.796875 27.296875 
Q 14.796875 17.390625 18.875 11.75 
Q 22.953125 6.109375 30.078125 6.109375 
Q 37.203125 6.109375 41.296875 11.75 
Q 45.40625 17.390625 45.40625 27.296875 
Q 45.40625 37.203125 41.296875 42.84375 
Q 37.203125 48.484375 30.078125 48.484375 
Q 22.953125 48.484375 18.875 42.84375 
Q 14.796875 37.203125 14.796875 27.296875 
z
" id="DejaVuSans-64"/>
      <path d="M 41.109375 46.296875 
Q 39.59375 47.171875 37.8125 47.578125 
Q 36.03125 48 33.890625 48 
Q 26.265625 48 22.1875 43.046875 
Q 18.109375 38.09375 18.109375 28.8125 
L 18.109375 0 
L 9.078125 0 
L 9.078125 54.6875 
L 18.109375 54.6875 
L 18.109375 46.1875 
Q 20.953125 51.171875 25.484375 53.578125 
Q 30.03125 56 36.53125 56 
Q 37.453125 56 38.578125 55.875 
Q 39.703125 55.765625 41.0625 55.515625 
z
" id="DejaVuSans-72"/>
      <path d="M 52 44.1875 
Q 55.375 50.25 60.0625 53.125 
Q 64.75 56 71.09375 56 
Q 79.640625 56 84.28125 50.015625 
Q 88.921875 44.046875 88.921875 33.015625 
L 88.921875 0 
L 79.890625 0 
L 79.890625 32.71875 
Q 79.890625 40.578125 77.09375 44.375 
Q 74.3125 48.1875 68.609375 48.1875 
Q 61.625 48.1875 57.5625 43.546875 
Q 53.515625 38.921875 53.515625 30.90625 
L 53.515625 0 
L 44.484375 0 
L 44.484375 32.71875 
Q 44.484375 40.625 41.703125 44.40625 
Q 38.921875 48.1875 33.109375 48.1875 
Q 26.21875 48.1875 22.15625 43.53125 
Q 18.109375 38.875 18.109375 30.90625 
L 18.109375 0 
L 9.078125 0 
L 9.078125 54.6875 
L 18.109375 54.6875 
L 18.109375 46.1875 
Q 21.1875 51.21875 25.484375 53.609375 
Q 29.78125 56 35.6875 56 
Q 41.65625 56 45.828125 52.96875 
Q 50 49.953125 52 44.1875 
z
" id="DejaVuSans-6d"/>
      <path d="M 34.28125 27.484375 
Q 23.390625 27.484375 19.1875 25 
Q 14.984375 22.515625 14.984375 16.5 
Q 14.984375 11.71875 18.140625 8.90625 
Q 21.296875 6.109375 26.703125 6.109375 
Q 34.1875 6.109375 38.703125 11.40625 
Q 43.21875 16.703125 43.21875 25.484375 
L 43.21875 27.484375 
z
M 52.203125 31.203125 
L 52.203125 0 
L 43.21875 0 
L 43.21875 8.296875 
Q 40.140625 3.328125 35.546875 0.953125 
Q 30.953125 -1.421875 24.3125 -1.421875 
Q 15.921875 -1.421875 10.953125 3.296875 
Q 6 8.015625 6 15.921875 
Q 6 25.140625 12.171875 29.828125 
Q 18.359375 34.515625 30.609375 34.515625 
L 43.21875 34.515625 
L 43.21875 35.40625 
Q 43.21875 41.609375 39.140625 45 
Q 35.0625 48.390625 27.6875 48.390625 
Q 23 48.390625 18.546875 47.265625 
Q 14.109375 46.140625 10.015625 43.890625 
L 10.015625 52.203125 
Q 14.9375 54.109375 19.578125 55.046875 
Q 24.21875 56 28.609375 56 
Q 40.484375 56 46.34375 49.84375 
Q 52.203125 43.703125 52.203125 31.203125 
z
" id="DejaVuSans-61"/>
     </defs>
     <g transform="translate(137.052188 281.79625)scale(0.12 -0.12)">
      <use xlink:href="#DejaVuSans-43"/>
      <use x="69.824219" xlink:href="#DejaVuSans-6f"/>
      <use x="131.005859" xlink:href="#DejaVuSans-65"/>
      <use x="192.529297" xlink:href="#DejaVuSans-66"/>
      <use x="227.734375" xlink:href="#DejaVuSans-66"/>
      <use x="262.939453" xlink:href="#DejaVuSans-69"/>
      <use x="290.722656" xlink:href="#DejaVuSans-63"/>
      <use x="345.703125" xlink:href="#DejaVuSans-69"/>
      <use x="373.486328" xlink:href="#DejaVuSans-65"/>
      <use x="435.009766" xlink:href="#DejaVuSans-6e"/>
      <use x="498.388672" xlink:href="#DejaVuSans-74"/>
      <use x="537.597656" xlink:href="#DejaVuSans-20"/>
      <use x="569.384766" xlink:href="#DejaVuSans-6f"/>
      <use x="630.566406" xlink:href="#DejaVuSans-66"/>
      <use x="665.771484" xlink:href="#DejaVuSans-20"/>
      <use x="697.558594" xlink:href="#DejaVuSans-64"/>
      <use x="761.035156" xlink:href="#DejaVuSans-65"/>
      <use x="822.558594" xlink:href="#DejaVuSans-74"/>
      <use x="861.767578" xlink:href="#DejaVuSans-65"/>
      <use x="923.291016" xlink:href="#DejaVuSans-72"/>
      <use x="964.388672" xlink:href="#DejaVuSans-6d"/>
      <use x="1061.800781" xlink:href="#DejaVuSans-69"/>
      <use x="1089.583984" xlink:href="#DejaVuSans-6e"/>
      <use x="1152.962891" xlink:href="#DejaVuSans-61"/>
      <use x="1214.242188" xlink:href="#DejaVuSans-74"/>
      <use x="1253.451172" xlink:href="#DejaVuSans-69"/>
      <use x="1281.234375" xlink:href="#DejaVuSans-6f"/>
      <use x="1342.416016" xlink:href="#DejaVuSans-6e"/>
     </g>
    </g>
   </g>
   <g id="matplotlib.axis_2">
    <g id="ytick_1">
     <g id="line2d_7">
      <defs>
       <path d="M 0 0 
L -3.5 0 
" id="m69c37d08f2" style="stroke:#000000;stroke-width:0.8;"/>
      </defs>
      <g>
       <use style="stroke:#000000;stroke-width:0.8;" x="54" xlink:href="#m69c37d08f2" y="252"/>
      </g>
     </g>
     <g id="text_8">
      <!-- 0 -->
      <g transform="translate(40.6375 255.799219)scale(0.1 -0.1)">
       <use xlink:href="#DejaVuSans-30"/>
      </g>
     </g>
    </g>
    <g id="ytick_2">
     <g id="line2d_8">
      <g>
       <use style="stroke:#000000;stroke-width:0.8;" x="54" xlink:href="#m69c37d08f2" y="223.538522"/>
      </g>
     </g>
     <g id="text_9">
      <!-- 250 -->
      <defs>
       <path d="M 10.796875 72.90625 
L 49.515625 72.90625 
L 49.515625 64.59375 
L 19.828125 64.59375 
L 19.828125 46.734375 
Q 21.96875 47.46875 24.109375 47.828125 
Q 26.265625 48.1875 28.421875 48.1875 
Q 40.625 48.1875 47.75 41.5 
Q 54.890625 34.8125 54.890625 23.390625 
Q 54.890625 11.625 47.5625 5.09375 
Q 40.234375 -1.421875 26.90625 -1.421875 
Q 22.3125 -1.421875 17.546875 -0.640625 
Q 12.796875 0.140625 7.71875 1.703125 
L 7.71875 11.625 
Q 12.109375 9.234375 16.796875 8.0625 
Q 21.484375 6.890625 26.703125 6.890625 
Q 35.15625 6.890625 40.078125 11.328125 
Q 45.015625 15.765625 45.015625 23.390625 
Q 45.015625 31 40.078125 35.4375 
Q 35.15625 39.890625 26.703125 39.890625 
Q 22.75 39.890625 18.8125 39.015625 
Q 14.890625 38.140625 10.796875 36.28125 
z
" id="DejaVuSans-35"/>
      </defs>
      <g transform="translate(27.9125 227.337741)scale(0.1 -0.1)">
       <use xlink:href="#DejaVuSans-32"/>
       <use x="63.623047" xlink:href="#DejaVuSans-35"/>
       <use x="127.246094" xlink:href="#DejaVuSans-30"/>
      </g>
     </g>
    </g>
    <g id="ytick_3">
     <g id="line2d_9">
      <g>
       <use style="stroke:#000000;stroke-width:0.8;" x="54" xlink:href="#m69c37d08f2" y="195.077044"/>
      </g>
     </g>
     <g id="text_10">
      <!-- 500 -->
      <g transform="translate(27.9125 198.876263)scale(0.1 -0.1)">
       <use xlink:href="#DejaVuSans-35"/>
       <use x="63.623047" xlink:href="#DejaVuSans-30"/>
       <use x="127.246094" xlink:href="#DejaVuSans-30"/>
      </g>
     </g>
    </g>
    <g id="ytick_4">
     <g id="line2d_10">
      <g>
       <use style="stroke:#000000;stroke-width:0.8;" x="54" xlink:href="#m69c37d08f2" y="166.615566"/>
      </g>
     </g>
     <g id="text_11">
      <!-- 750 -->
      <defs>
       <path d="M 8.203125 72.90625 
L 55.078125 72.90625 
L 55.078125 68.703125 
L 28.609375 0 
L 18.3125 0 
L 43.21875 64.59375 
L 8.203125 64.59375 
z
" id="DejaVuSans-37"/>
      </defs>
      <g transform="translate(27.9125 170.414785)scale(0.1 -0.1)">
       <use xlink:href="#DejaVuSans-37"/>
       <use x="63.623047" xlink:href="#DejaVuSans-35"/>
       <use x="127.246094" xlink:href="#DejaVuSans-30"/>
      </g>
     </g>
    </g>
    <g id="ytick_5">
     <g id="line2d_11">
      <g>
       <use style="stroke:#000000;stroke-width:0.8;" x="54" xlink:href="#m69c37d08f2" y="138.154088"/>
      </g>
     </g>
     <g id="text_12">
      <!-- 1000 -->
      <g transform="translate(21.55 141.953307)scale(0.1 -0.1)">
       <use xlink:href="#DejaVuSans-31"/>
       <use x="63.623047" xlink:href="#DejaVuSans-30"/>
       <use x="127.246094" xlink:href="#DejaVuSans-30"/>
       <use x="190.869141" xlink:href="#DejaVuSans-30"/>
      </g>
     </g>
    </g>
    <g id="ytick_6">
     <g id="line2d_12">
      <g>
       <use style="stroke:#000000;stroke-width:0.8;" x="54" xlink:href="#m69c37d08f2" y="109.69261"/>
      </g>
     </g>
     <g id="text_13">
      <!-- 1250 -->
      <g transform="translate(21.55 113.491829)scale(0.1 -0.1)">
       <use xlink:href="#DejaVuSans-31"/>
       <use x="63.623047" xlink:href="#DejaVuSans-32"/>
       <use x="127.246094" xlink:href="#DejaVuSans-35"/>
       <use x="190.869141" xlink:href="#DejaVuSans-30"/>
      </g>
     </g>
    </g>
    <g id="ytick_7">
     <g id="line2d_13">
      <g>
       <use style="stroke:#000000;stroke-width:0.8;" x="54" xlink:href="#m69c37d08f2" y="81.231132"/>
      </g>
     </g>
     <g id="text_14">
      <!-- 1500 -->
      <g transform="translate(21.55 85.03035)scale(0.1 -0.1)">
       <use xlink:href="#DejaVuSans-31"/>
       <use x="63.623047" xlink:href="#DejaVuSans-35"/>
       <use x="127.246094" xlink:href="#DejaVuSans-30"/>
       <use x="190.869141" xlink:href="#DejaVuSans-30"/>
      </g>
     </g>
    </g>
    <g id="ytick_8">
     <g id="line2d_14">
      <g>
       <use style="stroke:#000000;stroke-width:0.8;" x="54" xlink:href="#m69c37d08f2" y="52.769654"/>
      </g>
     </g>
     <g id="text_15">
      <!-- 1750 -->
      <g transform="translate(21.55 56.568872)scale(0.1 -0.1)">
       <use xlink:href="#DejaVuSans-31"/>
       <use x="63.623047" xlink:href="#DejaVuSans-37"/>
       <use x="127.246094" xlink:href="#DejaVuSans-35"/>
       <use x="190.869141" xlink:href="#DejaVuSans-30"/>
      </g>
     </g>
    </g>
    <g id="text_16">
     <!-- Number of features -->
     <defs>
      <path d="M 9.8125 72.90625 
L 23.09375 72.90625 
L 55.421875 11.921875 
L 55.421875 72.90625 
L 64.984375 72.90625 
L 64.984375 0 
L 51.703125 0 
L 19.390625 60.984375 
L 19.390625 0 
L 9.8125 0 
z
" id="DejaVuSans-4e"/>
      <path d="M 8.5 21.578125 
L 8.5 54.6875 
L 17.484375 54.6875 
L 17.484375 21.921875 
Q 17.484375 14.15625 20.5 10.265625 
Q 23.53125 6.390625 29.59375 6.390625 
Q 36.859375 6.390625 41.078125 11.03125 
Q 45.3125 15.671875 45.3125 23.6875 
L 45.3125 54.6875 
L 54.296875 54.6875 
L 54.296875 0 
L 45.3125 0 
L 45.3125 8.40625 
Q 42.046875 3.421875 37.71875 1 
Q 33.40625 -1.421875 27.6875 -1.421875 
Q 18.265625 -1.421875 13.375 4.4375 
Q 8.5 10.296875 8.5 21.578125 
z
M 31.109375 56 
z
" id="DejaVuSans-75"/>
      <path d="M 48.6875 27.296875 
Q 48.6875 37.203125 44.609375 42.84375 
Q 40.53125 48.484375 33.40625 48.484375 
Q 26.265625 48.484375 22.1875 42.84375 
Q 18.109375 37.203125 18.109375 27.296875 
Q 18.109375 17.390625 22.1875 11.75 
Q 26.265625 6.109375 33.40625 6.109375 
Q 40.53125 6.109375 44.609375 11.75 
Q 48.6875 17.390625 48.6875 27.296875 
z
M 18.109375 46.390625 
Q 20.953125 51.265625 25.265625 53.625 
Q 29.59375 56 35.59375 56 
Q 45.5625 56 51.78125 48.09375 
Q 58.015625 40.1875 58.015625 27.296875 
Q 58.015625 14.40625 51.78125 6.484375 
Q 45.5625 -1.421875 35.59375 -1.421875 
Q 29.59375 -1.421875 25.265625 0.953125 
Q 20.953125 3.328125 18.109375 8.203125 
L 18.109375 0 
L 9.078125 0 
L 9.078125 75.984375 
L 18.109375 75.984375 
z
" id="DejaVuSans-62"/>
      <path d="M 44.28125 53.078125 
L 44.28125 44.578125 
Q 40.484375 46.53125 36.375 47.5 
Q 32.28125 48.484375 27.875 48.484375 
Q 21.1875 48.484375 17.84375 46.4375 
Q 14.5 44.390625 14.5 40.28125 
Q 14.5 37.15625 16.890625 35.375 
Q 19.28125 33.59375 26.515625 31.984375 
L 29.59375 31.296875 
Q 39.15625 29.25 43.1875 25.515625 
Q 47.21875 21.78125 47.21875 15.09375 
Q 47.21875 7.46875 41.1875 3.015625 
Q 35.15625 -1.421875 24.609375 -1.421875 
Q 20.21875 -1.421875 15.453125 -0.5625 
Q 10.6875 0.296875 5.421875 2 
L 5.421875 11.28125 
Q 10.40625 8.6875 15.234375 7.390625 
Q 20.0625 6.109375 24.8125 6.109375 
Q 31.15625 6.109375 34.5625 8.28125 
Q 37.984375 10.453125 37.984375 14.40625 
Q 37.984375 18.0625 35.515625 20.015625 
Q 33.0625 21.96875 24.703125 23.78125 
L 21.578125 24.515625 
Q 13.234375 26.265625 9.515625 29.90625 
Q 5.8125 33.546875 5.8125 39.890625 
Q 5.8125 47.609375 11.28125 51.796875 
Q 16.75 56 26.8125 56 
Q 31.78125 56 36.171875 55.265625 
Q 40.578125 54.546875 44.28125 53.078125 
z
" id="DejaVuSans-73"/>
     </defs>
     <g transform="translate(15.054375 201.898125)rotate(-90)scale(0.12 -0.12)">
      <use xlink:href="#DejaVuSans-4e"/>
      <use x="74.804688" xlink:href="#DejaVuSans-75"/>
      <use x="138.183594" xlink:href="#DejaVuSans-6d"/>
      <use x="235.595703" xlink:href="#DejaVuSans-62"/>
      <use x="299.072266" xlink:href="#DejaVuSans-65"/>
      <use x="360.595703" xlink:href="#DejaVuSans-72"/>
      <use x="401.708984" xlink:href="#DejaVuSans-20"/>
      <use x="433.496094" xlink:href="#DejaVuSans-6f"/>
      <use x="494.677734" xlink:href="#DejaVuSans-66"/>
      <use x="529.882812" xlink:href="#DejaVuSans-20"/>
      <use x="561.669922" xlink:href="#DejaVuSans-66"/>
      <use x="596.875" xlink:href="#DejaVuSans-65"/>
      <use x="658.398438" xlink:href="#DejaVuSans-61"/>
      <use x="719.677734" xlink:href="#DejaVuSans-74"/>
      <use x="758.886719" xlink:href="#DejaVuSans-75"/>
      <use x="822.265625" xlink:href="#DejaVuSans-72"/>
      <use x="863.347656" xlink:href="#DejaVuSans-65"/>
      <use x="924.871094" xlink:href="#DejaVuSans-73"/>
     </g>
    </g>
   </g>
   <g id="patch_103">
    <path d="M 54 252 
L 54 34.56 
" style="fill:none;stroke:#000000;stroke-linecap:square;stroke-linejoin:miter;stroke-width:0.8;"/>
   </g>
   <g id="patch_104">
    <path d="M 388.8 252 
L 388.8 34.56 
" style="fill:none;stroke:#000000;stroke-linecap:square;stroke-linejoin:miter;stroke-width:0.8;"/>
   </g>
   <g id="patch_105">
    <path d="M 54 252 
L 388.8 252 
" style="fill:none;stroke:#000000;stroke-linecap:square;stroke-linejoin:miter;stroke-width:0.8;"/>
   </g>
   <g id="patch_106">
    <path d="M 54 34.56 
L 388.8 34.56 
" style="fill:none;stroke:#000000;stroke-linecap:square;stroke-linejoin:miter;stroke-width:0.8;"/>
   </g>
   <g id="text_17">
    <!-- Distribution of r-square for classical MN (all features = 3367) -->
    <defs>
     <path d="M 19.671875 64.796875 
L 19.671875 8.109375 
L 31.59375 8.109375 
Q 46.6875 8.109375 53.6875 14.9375 
Q 60.6875 21.78125 60.6875 36.53125 
Q 60.6875 51.171875 53.6875 57.984375 
Q 46.6875 64.796875 31.59375 64.796875 
z
M 9.8125 72.90625 
L 30.078125 72.90625 
Q 51.265625 72.90625 61.171875 64.09375 
Q 71.09375 55.28125 71.09375 36.53125 
Q 71.09375 17.671875 61.125 8.828125 
Q 51.171875 0 30.078125 0 
L 9.8125 0 
z
" id="DejaVuSans-44"/>
     <path d="M 4.890625 31.390625 
L 31.203125 31.390625 
L 31.203125 23.390625 
L 4.890625 23.390625 
z
" id="DejaVuSans-2d"/>
     <path d="M 14.796875 27.296875 
Q 14.796875 17.390625 18.875 11.75 
Q 22.953125 6.109375 30.078125 6.109375 
Q 37.203125 6.109375 41.296875 11.75 
Q 45.40625 17.390625 45.40625 27.296875 
Q 45.40625 37.203125 41.296875 42.84375 
Q 37.203125 48.484375 30.078125 48.484375 
Q 22.953125 48.484375 18.875 42.84375 
Q 14.796875 37.203125 14.796875 27.296875 
z
M 45.40625 8.203125 
Q 42.578125 3.328125 38.25 0.953125 
Q 33.9375 -1.421875 27.875 -1.421875 
Q 17.96875 -1.421875 11.734375 6.484375 
Q 5.515625 14.40625 5.515625 27.296875 
Q 5.515625 40.1875 11.734375 48.09375 
Q 17.96875 56 27.875 56 
Q 33.9375 56 38.25 53.625 
Q 42.578125 51.265625 45.40625 46.390625 
L 45.40625 54.6875 
L 54.390625 54.6875 
L 54.390625 -20.796875 
L 45.40625 -20.796875 
z
" id="DejaVuSans-71"/>
     <path d="M 9.421875 75.984375 
L 18.40625 75.984375 
L 18.40625 0 
L 9.421875 0 
z
" id="DejaVuSans-6c"/>
     <path d="M 9.8125 72.90625 
L 24.515625 72.90625 
L 43.109375 23.296875 
L 61.8125 72.90625 
L 76.515625 72.90625 
L 76.515625 0 
L 66.890625 0 
L 66.890625 64.015625 
L 48.09375 14.015625 
L 38.1875 14.015625 
L 19.390625 64.015625 
L 19.390625 0 
L 9.8125 0 
z
" id="DejaVuSans-4d"/>
     <path d="M 31 75.875 
Q 24.46875 64.65625 21.28125 53.65625 
Q 18.109375 42.671875 18.109375 31.390625 
Q 18.109375 20.125 21.3125 9.0625 
Q 24.515625 -2 31 -13.1875 
L 23.1875 -13.1875 
Q 15.875 -1.703125 12.234375 9.375 
Q 8.59375 20.453125 8.59375 31.390625 
Q 8.59375 42.28125 12.203125 53.3125 
Q 15.828125 64.359375 23.1875 75.875 
z
" id="DejaVuSans-28"/>
     <path d="M 10.59375 45.40625 
L 73.1875 45.40625 
L 73.1875 37.203125 
L 10.59375 37.203125 
z
M 10.59375 25.484375 
L 73.1875 25.484375 
L 73.1875 17.1875 
L 10.59375 17.1875 
z
" id="DejaVuSans-3d"/>
     <path d="M 40.578125 39.3125 
Q 47.65625 37.796875 51.625 33 
Q 55.609375 28.21875 55.609375 21.1875 
Q 55.609375 10.40625 48.1875 4.484375 
Q 40.765625 -1.421875 27.09375 -1.421875 
Q 22.515625 -1.421875 17.65625 -0.515625 
Q 12.796875 0.390625 7.625 2.203125 
L 7.625 11.71875 
Q 11.71875 9.328125 16.59375 8.109375 
Q 21.484375 6.890625 26.8125 6.890625 
Q 36.078125 6.890625 40.9375 10.546875 
Q 45.796875 14.203125 45.796875 21.1875 
Q 45.796875 27.640625 41.28125 31.265625 
Q 36.765625 34.90625 28.71875 34.90625 
L 20.21875 34.90625 
L 20.21875 43.015625 
L 29.109375 43.015625 
Q 36.375 43.015625 40.234375 45.921875 
Q 44.09375 48.828125 44.09375 54.296875 
Q 44.09375 59.90625 40.109375 62.90625 
Q 36.140625 65.921875 28.71875 65.921875 
Q 24.65625 65.921875 20.015625 65.03125 
Q 15.375 64.15625 9.8125 62.3125 
L 9.8125 71.09375 
Q 15.4375 72.65625 20.34375 73.4375 
Q 25.25 74.21875 29.59375 74.21875 
Q 40.828125 74.21875 47.359375 69.109375 
Q 53.90625 64.015625 53.90625 55.328125 
Q 53.90625 49.265625 50.4375 45.09375 
Q 46.96875 40.921875 40.578125 39.3125 
z
" id="DejaVuSans-33"/>
     <path d="M 8.015625 75.875 
L 15.828125 75.875 
Q 23.140625 64.359375 26.78125 53.3125 
Q 30.421875 42.28125 30.421875 31.390625 
Q 30.421875 20.453125 26.78125 9.375 
Q 23.140625 -1.703125 15.828125 -13.1875 
L 8.015625 -13.1875 
Q 14.5 -2 17.703125 9.0625 
Q 20.90625 20.125 20.90625 31.390625 
Q 20.90625 42.671875 17.703125 53.65625 
Q 14.5 64.65625 8.015625 75.875 
z
" id="DejaVuSans-29"/>
    </defs>
    <g transform="translate(38.228438 28.56)scale(0.12 -0.12)">
     <use xlink:href="#DejaVuSans-44"/>
     <use x="77.001953" xlink:href="#DejaVuSans-69"/>
     <use x="104.785156" xlink:href="#DejaVuSans-73"/>
     <use x="156.884766" xlink:href="#DejaVuSans-74"/>
     <use x="196.09375" xlink:href="#DejaVuSans-72"/>
     <use x="237.207031" xlink:href="#DejaVuSans-69"/>
     <use x="264.990234" xlink:href="#DejaVuSans-62"/>
     <use x="328.466797" xlink:href="#DejaVuSans-75"/>
     <use x="391.845703" xlink:href="#DejaVuSans-74"/>
     <use x="431.054688" xlink:href="#DejaVuSans-69"/>
     <use x="458.837891" xlink:href="#DejaVuSans-6f"/>
     <use x="520.019531" xlink:href="#DejaVuSans-6e"/>
     <use x="583.398438" xlink:href="#DejaVuSans-20"/>
     <use x="615.185547" xlink:href="#DejaVuSans-6f"/>
     <use x="676.367188" xlink:href="#DejaVuSans-66"/>
     <use x="711.572266" xlink:href="#DejaVuSans-20"/>
     <use x="743.359375" xlink:href="#DejaVuSans-72"/>
     <use x="784.378906" xlink:href="#DejaVuSans-2d"/>
     <use x="820.462891" xlink:href="#DejaVuSans-73"/>
     <use x="872.5625" xlink:href="#DejaVuSans-71"/>
     <use x="936.039062" xlink:href="#DejaVuSans-75"/>
     <use x="999.417969" xlink:href="#DejaVuSans-61"/>
     <use x="1060.697266" xlink:href="#DejaVuSans-72"/>
     <use x="1101.779297" xlink:href="#DejaVuSans-65"/>
     <use x="1163.302734" xlink:href="#DejaVuSans-20"/>
     <use x="1195.089844" xlink:href="#DejaVuSans-66"/>
     <use x="1230.294922" xlink:href="#DejaVuSans-6f"/>
     <use x="1291.476562" xlink:href="#DejaVuSans-72"/>
     <use x="1332.589844" xlink:href="#DejaVuSans-20"/>
     <use x="1364.376953" xlink:href="#DejaVuSans-63"/>
     <use x="1419.357422" xlink:href="#DejaVuSans-6c"/>
     <use x="1447.140625" xlink:href="#DejaVuSans-61"/>
     <use x="1508.419922" xlink:href="#DejaVuSans-73"/>
     <use x="1560.519531" xlink:href="#DejaVuSans-73"/>
     <use x="1612.619141" xlink:href="#DejaVuSans-69"/>
     <use x="1640.402344" xlink:href="#DejaVuSans-63"/>
     <use x="1695.382812" xlink:href="#DejaVuSans-61"/>
     <use x="1756.662109" xlink:href="#DejaVuSans-6c"/>
     <use x="1784.445312" xlink:href="#DejaVuSans-20"/>
     <use x="1816.232422" xlink:href="#DejaVuSans-4d"/>
     <use x="1902.511719" xlink:href="#DejaVuSans-4e"/>
     <use x="1977.316406" xlink:href="#DejaVuSans-20"/>
     <use x="2009.103516" xlink:href="#DejaVuSans-28"/>
     <use x="2048.117188" xlink:href="#DejaVuSans-61"/>
     <use x="2109.396484" xlink:href="#DejaVuSans-6c"/>
     <use x="2137.179688" xlink:href="#DejaVuSans-6c"/>
     <use x="2164.962891" xlink:href="#DejaVuSans-20"/>
     <use x="2196.75" xlink:href="#DejaVuSans-66"/>
     <use x="2231.955078" xlink:href="#DejaVuSans-65"/>
     <use x="2293.478516" xlink:href="#DejaVuSans-61"/>
     <use x="2354.757812" xlink:href="#DejaVuSans-74"/>
     <use x="2393.966797" xlink:href="#DejaVuSans-75"/>
     <use x="2457.345703" xlink:href="#DejaVuSans-72"/>
     <use x="2498.427734" xlink:href="#DejaVuSans-65"/>
     <use x="2559.951172" xlink:href="#DejaVuSans-73"/>
     <use x="2612.050781" xlink:href="#DejaVuSans-20"/>
     <use x="2643.837891" xlink:href="#DejaVuSans-3d"/>
     <use x="2727.626953" xlink:href="#DejaVuSans-20"/>
     <use x="2759.414062" xlink:href="#DejaVuSans-33"/>
     <use x="2823.037109" xlink:href="#DejaVuSans-33"/>
     <use x="2886.660156" xlink:href="#DejaVuSans-36"/>
     <use x="2950.283203" xlink:href="#DejaVuSans-37"/>
     <use x="3013.90625" xlink:href="#DejaVuSans-29"/>
    </g>
   </g>
  </g>
 </g>
 <defs>
  <clipPath id="paba3d593d0">
   <rect height="217.44" width="334.8" x="54" y="34.56"/>
  </clipPath>
 </defs>
</svg>
